<?xml version="1.0" encoding="UTF-8"?>
<svg xmlns="http://www.w3.org/2000/svg" viewBox="0 0 512 512" width="100" height="100">
  <!-- Background -->
  <rect width="512" height="512" rx="50" fill="#f0f9ff" />
  
  <!-- Document shape -->
  <path d="M150 80h212c11 0 20 9 20 20v312c0 11-9 20-20 20H150c-11 0-20-9-20-20V100c0-11 9-20 20-20z" fill="#3b82f6" />
  <path d="M160 100h192c6 0 10 4 10 10v272c0 6-4 10-10 10H160c-6 0-10-4-10-10V110c0-6 4-10 10-10z" fill="#ffffff" />
  
  <!-- Document lines -->
  <rect x="170" y="130" width="172" height="10" rx="5" fill="#93c5fd" />
  <rect x="170" y="160" width="172" height="10" rx="5" fill="#93c5fd" />
  <rect x="170" y="190" width="120" height="10" rx="5" fill="#93c5fd" />
  
  <!-- QR code representation -->
  <rect x="170" y="220" width="80" height="80" rx="5" fill="#1d4ed8" />
  <rect x="180" y="230" width="20" height="20" fill="#ffffff" />
  <rect x="220" y="230" width="20" height="20" fill="#ffffff" />
  <rect x="180" y="270" width="20" height="20" fill="#ffffff" />
  <rect x="210" y="250" width="10" height="10" fill="#ffffff" />
  <rect x="230" y="260" width="10" height="10" fill="#ffffff" />
  
  <!-- Flame icon for Firebase -->
  <path d="M320 290c0 0 15-15 20-30 5 10 15 20 15 20s5-20 5-30c5 5 15 10 15 10s-5-20-15-40c10 5 20 5 20 5s-10-20-30-40c20 5 40 0 40 0s-40-40-40-60c0 20-40 60-40 60s20 5 40 0c-20 20-30 40-30 40s10 0 20-5c-10 20-15 40-15 40s10-5 15-10c0 10 5 30 5 30s10-10 15-20c5 15 20 30 20 30s-10-40-10-60c0 20-10 60-10 60z" fill="#ef4444" />
</svg>
